<mxfile host="app.diagrams.net" modified="2024-02-02T16:15:48.521Z" agent="Mozilla/5.0 (Macintosh; Intel Mac OS X 10_15_7) AppleWebKit/537.36 (KHTML, like Gecko) Chrome/120.0.0.0 Safari/537.36" etag="zvhw__LSt8KsT81Y6ett" version="23.0.2" type="github">
  <diagram name="Page-1" id="wIH9s7T8dGh4hBO_BiHP">
    <mxGraphModel dx="3754" dy="2374" grid="0" gridSize="10" guides="1" tooltips="1" connect="1" arrows="1" fold="1" page="1" pageScale="1" pageWidth="2500" pageHeight="2200" math="0" shadow="0">
      <root>
        <mxCell id="0" />
        <mxCell id="1" parent="0" />
        <mxCell id="MHrxUZ-h8h2R6Ow2J2WO-1" value="&lt;font style=&quot;font-size: 30px; font-weight: normal;&quot;&gt;HCI Layer&lt;/font&gt;" style="shape=folder;fontStyle=1;tabWidth=260;tabHeight=68;tabPosition=left;html=1;boundedLbl=1;labelInHeader=1;container=1;collapsible=0;recursiveResize=0;whiteSpace=wrap;" vertex="1" parent="1">
          <mxGeometry x="135" y="105" width="2231" height="523" as="geometry" />
        </mxCell>
        <mxCell id="MHrxUZ-h8h2R6Ow2J2WO-7" value="&lt;font style=&quot;font-size: 20px; font-weight: normal;&quot;&gt;Login UI&lt;/font&gt;" style="shape=folder;fontStyle=1;tabWidth=200;tabHeight=55;tabPosition=left;html=1;boundedLbl=1;labelInHeader=1;container=1;collapsible=0;recursiveResize=0;whiteSpace=wrap;" vertex="1" parent="MHrxUZ-h8h2R6Ow2J2WO-1">
          <mxGeometry x="462" y="172" width="505" height="238" as="geometry" />
        </mxCell>
        <mxCell id="MHrxUZ-h8h2R6Ow2J2WO-8" value="Login UI" style="swimlane;fontStyle=2;align=center;verticalAlign=top;childLayout=stackLayout;horizontal=1;startSize=30;horizontalStack=0;resizeParent=1;resizeLast=0;collapsible=1;marginBottom=0;rounded=0;shadow=0;strokeWidth=1;fillColor=#f5f5f5;fontColor=#333333;strokeColor=#666666;fontSize=18;" vertex="1" parent="MHrxUZ-h8h2R6Ow2J2WO-7">
          <mxGeometry x="51.5" y="96" width="178" height="108" as="geometry">
            <mxRectangle x="230" y="140" width="160" height="26" as="alternateBounds" />
          </mxGeometry>
        </mxCell>
        <mxCell id="MHrxUZ-h8h2R6Ow2J2WO-9" value="" style="line;html=1;strokeWidth=1;align=left;verticalAlign=middle;spacingTop=-1;spacingLeft=3;spacingRight=3;rotatable=0;labelPosition=right;points=[];portConstraint=eastwest;" vertex="1" parent="MHrxUZ-h8h2R6Ow2J2WO-8">
          <mxGeometry y="30" width="178" height="60" as="geometry" />
        </mxCell>
        <mxCell id="MHrxUZ-h8h2R6Ow2J2WO-16" value="RegisterLab UI" style="swimlane;fontStyle=2;align=center;verticalAlign=top;childLayout=stackLayout;horizontal=1;startSize=30;horizontalStack=0;resizeParent=1;resizeLast=0;collapsible=1;marginBottom=0;rounded=0;shadow=0;strokeWidth=1;fillColor=#f5f5f5;fontColor=#333333;strokeColor=#666666;fontSize=18;" vertex="1" parent="MHrxUZ-h8h2R6Ow2J2WO-7">
          <mxGeometry x="278" y="96" width="178" height="108" as="geometry">
            <mxRectangle x="230" y="140" width="160" height="26" as="alternateBounds" />
          </mxGeometry>
        </mxCell>
        <mxCell id="MHrxUZ-h8h2R6Ow2J2WO-17" value="" style="line;html=1;strokeWidth=1;align=left;verticalAlign=middle;spacingTop=-1;spacingLeft=3;spacingRight=3;rotatable=0;labelPosition=right;points=[];portConstraint=eastwest;" vertex="1" parent="MHrxUZ-h8h2R6Ow2J2WO-16">
          <mxGeometry y="30" width="178" height="60" as="geometry" />
        </mxCell>
        <mxCell id="MHrxUZ-h8h2R6Ow2J2WO-10" value="&lt;font style=&quot;font-size: 20px; font-weight: normal;&quot;&gt;PatientPanel UI&lt;/font&gt;" style="shape=folder;fontStyle=1;tabWidth=200;tabHeight=55;tabPosition=left;html=1;boundedLbl=1;labelInHeader=1;container=1;collapsible=0;recursiveResize=0;whiteSpace=wrap;" vertex="1" parent="MHrxUZ-h8h2R6Ow2J2WO-1">
          <mxGeometry x="1035" y="172" width="281" height="238" as="geometry" />
        </mxCell>
        <mxCell id="MHrxUZ-h8h2R6Ow2J2WO-11" value="PatientPanel UI" style="swimlane;fontStyle=2;align=center;verticalAlign=top;childLayout=stackLayout;horizontal=1;startSize=30;horizontalStack=0;resizeParent=1;resizeLast=0;collapsible=1;marginBottom=0;rounded=0;shadow=0;strokeWidth=1;fillColor=#f5f5f5;fontColor=#333333;strokeColor=#666666;fontSize=18;" vertex="1" parent="MHrxUZ-h8h2R6Ow2J2WO-10">
          <mxGeometry x="51.5" y="96" width="178" height="108" as="geometry">
            <mxRectangle x="230" y="140" width="160" height="26" as="alternateBounds" />
          </mxGeometry>
        </mxCell>
        <mxCell id="MHrxUZ-h8h2R6Ow2J2WO-12" value="" style="line;html=1;strokeWidth=1;align=left;verticalAlign=middle;spacingTop=-1;spacingLeft=3;spacingRight=3;rotatable=0;labelPosition=right;points=[];portConstraint=eastwest;" vertex="1" parent="MHrxUZ-h8h2R6Ow2J2WO-11">
          <mxGeometry y="30" width="178" height="60" as="geometry" />
        </mxCell>
        <mxCell id="MHrxUZ-h8h2R6Ow2J2WO-13" value="&lt;font style=&quot;font-size: 20px; font-weight: normal;&quot;&gt;Landing UI&lt;/font&gt;" style="shape=folder;fontStyle=1;tabWidth=200;tabHeight=55;tabPosition=left;html=1;boundedLbl=1;labelInHeader=1;container=1;collapsible=0;recursiveResize=0;whiteSpace=wrap;" vertex="1" parent="MHrxUZ-h8h2R6Ow2J2WO-1">
          <mxGeometry x="112" y="172" width="281" height="238" as="geometry" />
        </mxCell>
        <mxCell id="MHrxUZ-h8h2R6Ow2J2WO-14" value="Landing UI" style="swimlane;fontStyle=2;align=center;verticalAlign=top;childLayout=stackLayout;horizontal=1;startSize=30;horizontalStack=0;resizeParent=1;resizeLast=0;collapsible=1;marginBottom=0;rounded=0;shadow=0;strokeWidth=1;fillColor=#f5f5f5;fontColor=#333333;strokeColor=#666666;fontSize=18;" vertex="1" parent="MHrxUZ-h8h2R6Ow2J2WO-13">
          <mxGeometry x="51.5" y="96" width="178" height="108" as="geometry">
            <mxRectangle x="230" y="140" width="160" height="26" as="alternateBounds" />
          </mxGeometry>
        </mxCell>
        <mxCell id="MHrxUZ-h8h2R6Ow2J2WO-15" value="" style="line;html=1;strokeWidth=1;align=left;verticalAlign=middle;spacingTop=-1;spacingLeft=3;spacingRight=3;rotatable=0;labelPosition=right;points=[];portConstraint=eastwest;" vertex="1" parent="MHrxUZ-h8h2R6Ow2J2WO-14">
          <mxGeometry y="30" width="178" height="60" as="geometry" />
        </mxCell>
        <mxCell id="MHrxUZ-h8h2R6Ow2J2WO-18" value="&lt;font style=&quot;font-size: 20px; font-weight: normal;&quot;&gt;UserPanel UI&lt;/font&gt;" style="shape=folder;fontStyle=1;tabWidth=200;tabHeight=55;tabPosition=left;html=1;boundedLbl=1;labelInHeader=1;container=1;collapsible=0;recursiveResize=0;whiteSpace=wrap;" vertex="1" parent="MHrxUZ-h8h2R6Ow2J2WO-1">
          <mxGeometry x="1384" y="172" width="735" height="238" as="geometry" />
        </mxCell>
        <mxCell id="MHrxUZ-h8h2R6Ow2J2WO-19" value="ManagerPanel UI" style="swimlane;fontStyle=2;align=center;verticalAlign=top;childLayout=stackLayout;horizontal=1;startSize=30;horizontalStack=0;resizeParent=1;resizeLast=0;collapsible=1;marginBottom=0;rounded=0;shadow=0;strokeWidth=1;fillColor=#f5f5f5;fontColor=#333333;strokeColor=#666666;fontSize=18;" vertex="1" parent="MHrxUZ-h8h2R6Ow2J2WO-18">
          <mxGeometry x="51.5" y="96" width="178" height="108" as="geometry">
            <mxRectangle x="230" y="140" width="160" height="26" as="alternateBounds" />
          </mxGeometry>
        </mxCell>
        <mxCell id="MHrxUZ-h8h2R6Ow2J2WO-20" value="" style="line;html=1;strokeWidth=1;align=left;verticalAlign=middle;spacingTop=-1;spacingLeft=3;spacingRight=3;rotatable=0;labelPosition=right;points=[];portConstraint=eastwest;" vertex="1" parent="MHrxUZ-h8h2R6Ow2J2WO-19">
          <mxGeometry y="30" width="178" height="60" as="geometry" />
        </mxCell>
        <mxCell id="MHrxUZ-h8h2R6Ow2J2WO-21" value="TechnicianPanel UI" style="swimlane;fontStyle=2;align=center;verticalAlign=top;childLayout=stackLayout;horizontal=1;startSize=30;horizontalStack=0;resizeParent=1;resizeLast=0;collapsible=1;marginBottom=0;rounded=0;shadow=0;strokeWidth=1;fillColor=#f5f5f5;fontColor=#333333;strokeColor=#666666;fontSize=18;" vertex="1" parent="MHrxUZ-h8h2R6Ow2J2WO-18">
          <mxGeometry x="278" y="96" width="178" height="108" as="geometry">
            <mxRectangle x="230" y="140" width="160" height="26" as="alternateBounds" />
          </mxGeometry>
        </mxCell>
        <mxCell id="MHrxUZ-h8h2R6Ow2J2WO-22" value="" style="line;html=1;strokeWidth=1;align=left;verticalAlign=middle;spacingTop=-1;spacingLeft=3;spacingRight=3;rotatable=0;labelPosition=right;points=[];portConstraint=eastwest;" vertex="1" parent="MHrxUZ-h8h2R6Ow2J2WO-21">
          <mxGeometry y="30" width="178" height="60" as="geometry" />
        </mxCell>
        <mxCell id="MHrxUZ-h8h2R6Ow2J2WO-23" value="PathologistPanel UI" style="swimlane;fontStyle=2;align=center;verticalAlign=top;childLayout=stackLayout;horizontal=1;startSize=30;horizontalStack=0;resizeParent=1;resizeLast=0;collapsible=1;marginBottom=0;rounded=0;shadow=0;strokeWidth=1;fillColor=#f5f5f5;fontColor=#333333;strokeColor=#666666;fontSize=18;" vertex="1" parent="MHrxUZ-h8h2R6Ow2J2WO-18">
          <mxGeometry x="513" y="96" width="178" height="108" as="geometry">
            <mxRectangle x="230" y="140" width="160" height="26" as="alternateBounds" />
          </mxGeometry>
        </mxCell>
        <mxCell id="MHrxUZ-h8h2R6Ow2J2WO-24" value="" style="line;html=1;strokeWidth=1;align=left;verticalAlign=middle;spacingTop=-1;spacingLeft=3;spacingRight=3;rotatable=0;labelPosition=right;points=[];portConstraint=eastwest;" vertex="1" parent="MHrxUZ-h8h2R6Ow2J2WO-23">
          <mxGeometry y="30" width="178" height="60" as="geometry" />
        </mxCell>
        <mxCell id="AqmRdgTgPigFePDHz0Uh-1" value="&lt;font style=&quot;font-size: 30px; font-weight: normal;&quot;&gt;DM Layer&lt;/font&gt;" style="shape=folder;fontStyle=1;tabWidth=260;tabHeight=68;tabPosition=left;html=1;boundedLbl=1;labelInHeader=1;container=1;collapsible=0;recursiveResize=0;whiteSpace=wrap;" vertex="1" parent="1">
          <mxGeometry x="135" y="1573" width="2231" height="523" as="geometry" />
        </mxCell>
        <mxCell id="v_ib7AoCrN3aufJ-A9O3-29" value="Test" style="swimlane;fontStyle=2;align=center;verticalAlign=top;childLayout=stackLayout;horizontal=1;startSize=30;horizontalStack=0;resizeParent=1;resizeLast=0;collapsible=1;marginBottom=0;rounded=0;shadow=0;strokeWidth=1;fillColor=#f5f5f5;fontColor=#333333;strokeColor=#666666;fontSize=18;" vertex="1" parent="AqmRdgTgPigFePDHz0Uh-1">
          <mxGeometry x="1684" y="127" width="178" height="108" as="geometry">
            <mxRectangle x="230" y="140" width="160" height="26" as="alternateBounds" />
          </mxGeometry>
        </mxCell>
        <mxCell id="v_ib7AoCrN3aufJ-A9O3-30" value="" style="line;html=1;strokeWidth=1;align=left;verticalAlign=middle;spacingTop=-1;spacingLeft=3;spacingRight=3;rotatable=0;labelPosition=right;points=[];portConstraint=eastwest;" vertex="1" parent="v_ib7AoCrN3aufJ-A9O3-29">
          <mxGeometry y="30" width="178" height="60" as="geometry" />
        </mxCell>
        <mxCell id="v_ib7AoCrN3aufJ-A9O3-31" value="TestType" style="swimlane;fontStyle=2;align=center;verticalAlign=top;childLayout=stackLayout;horizontal=1;startSize=30;horizontalStack=0;resizeParent=1;resizeLast=0;collapsible=1;marginBottom=0;rounded=0;shadow=0;strokeWidth=1;fillColor=#f5f5f5;fontColor=#333333;strokeColor=#666666;fontSize=18;" vertex="1" parent="AqmRdgTgPigFePDHz0Uh-1">
          <mxGeometry x="1942.5" y="127" width="178" height="108" as="geometry">
            <mxRectangle x="230" y="140" width="160" height="26" as="alternateBounds" />
          </mxGeometry>
        </mxCell>
        <mxCell id="v_ib7AoCrN3aufJ-A9O3-32" value="" style="line;html=1;strokeWidth=1;align=left;verticalAlign=middle;spacingTop=-1;spacingLeft=3;spacingRight=3;rotatable=0;labelPosition=right;points=[];portConstraint=eastwest;" vertex="1" parent="v_ib7AoCrN3aufJ-A9O3-31">
          <mxGeometry y="30" width="178" height="60" as="geometry" />
        </mxCell>
        <mxCell id="v_ib7AoCrN3aufJ-A9O3-33" value="Appointment" style="swimlane;fontStyle=2;align=center;verticalAlign=top;childLayout=stackLayout;horizontal=1;startSize=30;horizontalStack=0;resizeParent=1;resizeLast=0;collapsible=1;marginBottom=0;rounded=0;shadow=0;strokeWidth=1;fillColor=#f5f5f5;fontColor=#333333;strokeColor=#666666;fontSize=18;" vertex="1" parent="AqmRdgTgPigFePDHz0Uh-1">
          <mxGeometry x="1684" y="288" width="178" height="108" as="geometry">
            <mxRectangle x="230" y="140" width="160" height="26" as="alternateBounds" />
          </mxGeometry>
        </mxCell>
        <mxCell id="v_ib7AoCrN3aufJ-A9O3-34" value="" style="line;html=1;strokeWidth=1;align=left;verticalAlign=middle;spacingTop=-1;spacingLeft=3;spacingRight=3;rotatable=0;labelPosition=right;points=[];portConstraint=eastwest;" vertex="1" parent="v_ib7AoCrN3aufJ-A9O3-33">
          <mxGeometry y="30" width="178" height="60" as="geometry" />
        </mxCell>
        <mxCell id="v_ib7AoCrN3aufJ-A9O3-35" value="AppointmentInterval" style="swimlane;fontStyle=2;align=center;verticalAlign=top;childLayout=stackLayout;horizontal=1;startSize=30;horizontalStack=0;resizeParent=1;resizeLast=0;collapsible=1;marginBottom=0;rounded=0;shadow=0;strokeWidth=1;fillColor=#f5f5f5;fontColor=#333333;strokeColor=#666666;fontSize=18;" vertex="1" parent="AqmRdgTgPigFePDHz0Uh-1">
          <mxGeometry x="1942.5" y="288" width="178" height="108" as="geometry">
            <mxRectangle x="230" y="140" width="160" height="26" as="alternateBounds" />
          </mxGeometry>
        </mxCell>
        <mxCell id="v_ib7AoCrN3aufJ-A9O3-36" value="" style="line;html=1;strokeWidth=1;align=left;verticalAlign=middle;spacingTop=-1;spacingLeft=3;spacingRight=3;rotatable=0;labelPosition=right;points=[];portConstraint=eastwest;" vertex="1" parent="v_ib7AoCrN3aufJ-A9O3-35">
          <mxGeometry y="30" width="178" height="60" as="geometry" />
        </mxCell>
        <mxCell id="v_ib7AoCrN3aufJ-A9O3-37" value="Laboratory" style="swimlane;fontStyle=2;align=center;verticalAlign=top;childLayout=stackLayout;horizontal=1;startSize=30;horizontalStack=0;resizeParent=1;resizeLast=0;collapsible=1;marginBottom=0;rounded=0;shadow=0;strokeWidth=1;fillColor=#f5f5f5;fontColor=#333333;strokeColor=#666666;fontSize=18;" vertex="1" parent="AqmRdgTgPigFePDHz0Uh-1">
          <mxGeometry x="451" y="371" width="178" height="108" as="geometry">
            <mxRectangle x="230" y="140" width="160" height="26" as="alternateBounds" />
          </mxGeometry>
        </mxCell>
        <mxCell id="v_ib7AoCrN3aufJ-A9O3-38" value="" style="line;html=1;strokeWidth=1;align=left;verticalAlign=middle;spacingTop=-1;spacingLeft=3;spacingRight=3;rotatable=0;labelPosition=right;points=[];portConstraint=eastwest;" vertex="1" parent="v_ib7AoCrN3aufJ-A9O3-37">
          <mxGeometry y="30" width="178" height="60" as="geometry" />
        </mxCell>
        <mxCell id="v_ib7AoCrN3aufJ-A9O3-39" value="Technician" style="swimlane;fontStyle=2;align=center;verticalAlign=top;childLayout=stackLayout;horizontal=1;startSize=30;horizontalStack=0;resizeParent=1;resizeLast=0;collapsible=1;marginBottom=0;rounded=0;shadow=0;strokeWidth=1;fillColor=#f5f5f5;fontColor=#333333;strokeColor=#666666;fontSize=18;" vertex="1" parent="AqmRdgTgPigFePDHz0Uh-1">
          <mxGeometry x="641" y="207.5" width="178" height="108" as="geometry">
            <mxRectangle x="230" y="140" width="160" height="26" as="alternateBounds" />
          </mxGeometry>
        </mxCell>
        <mxCell id="v_ib7AoCrN3aufJ-A9O3-40" value="" style="line;html=1;strokeWidth=1;align=left;verticalAlign=middle;spacingTop=-1;spacingLeft=3;spacingRight=3;rotatable=0;labelPosition=right;points=[];portConstraint=eastwest;" vertex="1" parent="v_ib7AoCrN3aufJ-A9O3-39">
          <mxGeometry y="30" width="178" height="60" as="geometry" />
        </mxCell>
        <mxCell id="v_ib7AoCrN3aufJ-A9O3-41" value="LabManager" style="swimlane;fontStyle=2;align=center;verticalAlign=top;childLayout=stackLayout;horizontal=1;startSize=30;horizontalStack=0;resizeParent=1;resizeLast=0;collapsible=1;marginBottom=0;rounded=0;shadow=0;strokeWidth=1;fillColor=#f5f5f5;fontColor=#333333;strokeColor=#666666;fontSize=18;" vertex="1" parent="AqmRdgTgPigFePDHz0Uh-1">
          <mxGeometry x="1076" y="207.5" width="178" height="108" as="geometry">
            <mxRectangle x="230" y="140" width="160" height="26" as="alternateBounds" />
          </mxGeometry>
        </mxCell>
        <mxCell id="v_ib7AoCrN3aufJ-A9O3-42" value="" style="line;html=1;strokeWidth=1;align=left;verticalAlign=middle;spacingTop=-1;spacingLeft=3;spacingRight=3;rotatable=0;labelPosition=right;points=[];portConstraint=eastwest;" vertex="1" parent="v_ib7AoCrN3aufJ-A9O3-41">
          <mxGeometry y="30" width="178" height="60" as="geometry" />
        </mxCell>
        <mxCell id="v_ib7AoCrN3aufJ-A9O3-43" value="Pathologist" style="swimlane;fontStyle=2;align=center;verticalAlign=top;childLayout=stackLayout;horizontal=1;startSize=30;horizontalStack=0;resizeParent=1;resizeLast=0;collapsible=1;marginBottom=0;rounded=0;shadow=0;strokeWidth=1;fillColor=#f5f5f5;fontColor=#333333;strokeColor=#666666;fontSize=18;" vertex="1" parent="AqmRdgTgPigFePDHz0Uh-1">
          <mxGeometry x="854" y="207.5" width="178" height="108" as="geometry">
            <mxRectangle x="230" y="140" width="160" height="26" as="alternateBounds" />
          </mxGeometry>
        </mxCell>
        <mxCell id="v_ib7AoCrN3aufJ-A9O3-44" value="" style="line;html=1;strokeWidth=1;align=left;verticalAlign=middle;spacingTop=-1;spacingLeft=3;spacingRight=3;rotatable=0;labelPosition=right;points=[];portConstraint=eastwest;" vertex="1" parent="v_ib7AoCrN3aufJ-A9O3-43">
          <mxGeometry y="30" width="178" height="60" as="geometry" />
        </mxCell>
        <mxCell id="v_ib7AoCrN3aufJ-A9O3-45" value="Patient" style="swimlane;fontStyle=2;align=center;verticalAlign=top;childLayout=stackLayout;horizontal=1;startSize=30;horizontalStack=0;resizeParent=1;resizeLast=0;collapsible=1;marginBottom=0;rounded=0;shadow=0;strokeWidth=1;fillColor=#f5f5f5;fontColor=#333333;strokeColor=#666666;fontSize=18;" vertex="1" parent="AqmRdgTgPigFePDHz0Uh-1">
          <mxGeometry x="261" y="197" width="178" height="108" as="geometry">
            <mxRectangle x="230" y="140" width="160" height="26" as="alternateBounds" />
          </mxGeometry>
        </mxCell>
        <mxCell id="v_ib7AoCrN3aufJ-A9O3-46" value="" style="line;html=1;strokeWidth=1;align=left;verticalAlign=middle;spacingTop=-1;spacingLeft=3;spacingRight=3;rotatable=0;labelPosition=right;points=[];portConstraint=eastwest;" vertex="1" parent="v_ib7AoCrN3aufJ-A9O3-45">
          <mxGeometry y="30" width="178" height="60" as="geometry" />
        </mxCell>
        <mxCell id="v_ib7AoCrN3aufJ-A9O3-47" value="Address" style="swimlane;fontStyle=2;align=center;verticalAlign=top;childLayout=stackLayout;horizontal=1;startSize=30;horizontalStack=0;resizeParent=1;resizeLast=0;collapsible=1;marginBottom=0;rounded=0;shadow=0;strokeWidth=1;fillColor=#f5f5f5;fontColor=#333333;strokeColor=#666666;fontSize=18;" vertex="1" parent="AqmRdgTgPigFePDHz0Uh-1">
          <mxGeometry x="34" y="197" width="178" height="108" as="geometry">
            <mxRectangle x="230" y="140" width="160" height="26" as="alternateBounds" />
          </mxGeometry>
        </mxCell>
        <mxCell id="v_ib7AoCrN3aufJ-A9O3-48" value="" style="line;html=1;strokeWidth=1;align=left;verticalAlign=middle;spacingTop=-1;spacingLeft=3;spacingRight=3;rotatable=0;labelPosition=right;points=[];portConstraint=eastwest;" vertex="1" parent="v_ib7AoCrN3aufJ-A9O3-47">
          <mxGeometry y="30" width="178" height="60" as="geometry" />
        </mxCell>
        <mxCell id="BsBTpEDuHhooEc4nyUK5-25" value="&lt;font style=&quot;font-size: 30px; font-weight: normal;&quot;&gt;PD Layer&lt;/font&gt;" style="shape=folder;fontStyle=1;tabWidth=260;tabHeight=68;tabPosition=left;html=1;boundedLbl=1;labelInHeader=1;container=1;collapsible=0;recursiveResize=0;whiteSpace=wrap;" vertex="1" parent="1">
          <mxGeometry x="135" y="737" width="2231" height="728" as="geometry" />
        </mxCell>
        <mxCell id="BsBTpEDuHhooEc4nyUK5-31" value="&lt;font style=&quot;font-size: 20px; font-weight: normal;&quot;&gt;Patient&lt;/font&gt;" style="shape=folder;fontStyle=1;tabWidth=200;tabHeight=55;tabPosition=left;html=1;boundedLbl=1;labelInHeader=1;container=1;collapsible=0;recursiveResize=0;whiteSpace=wrap;" vertex="1" parent="BsBTpEDuHhooEc4nyUK5-25">
          <mxGeometry x="406" y="137" width="281" height="238" as="geometry" />
        </mxCell>
        <mxCell id="BsBTpEDuHhooEc4nyUK5-32" value="Patient" style="swimlane;fontStyle=2;align=center;verticalAlign=top;childLayout=stackLayout;horizontal=1;startSize=30;horizontalStack=0;resizeParent=1;resizeLast=0;collapsible=1;marginBottom=0;rounded=0;shadow=0;strokeWidth=1;fillColor=#f5f5f5;fontColor=#333333;strokeColor=#666666;fontSize=18;" vertex="1" parent="BsBTpEDuHhooEc4nyUK5-31">
          <mxGeometry x="51.5" y="96" width="178" height="108" as="geometry">
            <mxRectangle x="230" y="140" width="160" height="26" as="alternateBounds" />
          </mxGeometry>
        </mxCell>
        <mxCell id="BsBTpEDuHhooEc4nyUK5-33" value="" style="line;html=1;strokeWidth=1;align=left;verticalAlign=middle;spacingTop=-1;spacingLeft=3;spacingRight=3;rotatable=0;labelPosition=right;points=[];portConstraint=eastwest;" vertex="1" parent="BsBTpEDuHhooEc4nyUK5-32">
          <mxGeometry y="30" width="178" height="60" as="geometry" />
        </mxCell>
        <mxCell id="BsBTpEDuHhooEc4nyUK5-34" value="&lt;font style=&quot;font-size: 20px; font-weight: normal;&quot;&gt;Address&lt;/font&gt;" style="shape=folder;fontStyle=1;tabWidth=200;tabHeight=55;tabPosition=left;html=1;boundedLbl=1;labelInHeader=1;container=1;collapsible=0;recursiveResize=0;whiteSpace=wrap;" vertex="1" parent="BsBTpEDuHhooEc4nyUK5-25">
          <mxGeometry x="51" y="133" width="281" height="238" as="geometry" />
        </mxCell>
        <mxCell id="BsBTpEDuHhooEc4nyUK5-35" value="Address" style="swimlane;fontStyle=2;align=center;verticalAlign=top;childLayout=stackLayout;horizontal=1;startSize=30;horizontalStack=0;resizeParent=1;resizeLast=0;collapsible=1;marginBottom=0;rounded=0;shadow=0;strokeWidth=1;fillColor=#f5f5f5;fontColor=#333333;strokeColor=#666666;fontSize=18;" vertex="1" parent="BsBTpEDuHhooEc4nyUK5-34">
          <mxGeometry x="51.5" y="96" width="178" height="108" as="geometry">
            <mxRectangle x="230" y="140" width="160" height="26" as="alternateBounds" />
          </mxGeometry>
        </mxCell>
        <mxCell id="BsBTpEDuHhooEc4nyUK5-36" value="" style="line;html=1;strokeWidth=1;align=left;verticalAlign=middle;spacingTop=-1;spacingLeft=3;spacingRight=3;rotatable=0;labelPosition=right;points=[];portConstraint=eastwest;" vertex="1" parent="BsBTpEDuHhooEc4nyUK5-35">
          <mxGeometry y="30" width="178" height="60" as="geometry" />
        </mxCell>
        <mxCell id="BsBTpEDuHhooEc4nyUK5-37" value="&lt;font style=&quot;font-size: 20px; font-weight: normal;&quot;&gt;Appointments&lt;/font&gt;" style="shape=folder;fontStyle=1;tabWidth=200;tabHeight=55;tabPosition=left;html=1;boundedLbl=1;labelInHeader=1;container=1;collapsible=0;recursiveResize=0;whiteSpace=wrap;" vertex="1" parent="BsBTpEDuHhooEc4nyUK5-25">
          <mxGeometry x="1612" y="158" width="555" height="427" as="geometry" />
        </mxCell>
        <mxCell id="BsBTpEDuHhooEc4nyUK5-38" value="Appointment" style="swimlane;fontStyle=2;align=center;verticalAlign=top;childLayout=stackLayout;horizontal=1;startSize=30;horizontalStack=0;resizeParent=1;resizeLast=0;collapsible=1;marginBottom=0;rounded=0;shadow=0;strokeWidth=1;fillColor=#f5f5f5;fontColor=#333333;strokeColor=#666666;fontSize=18;" vertex="1" parent="BsBTpEDuHhooEc4nyUK5-37">
          <mxGeometry x="51.5" y="96" width="178" height="108" as="geometry">
            <mxRectangle x="230" y="140" width="160" height="26" as="alternateBounds" />
          </mxGeometry>
        </mxCell>
        <mxCell id="BsBTpEDuHhooEc4nyUK5-39" value="" style="line;html=1;strokeWidth=1;align=left;verticalAlign=middle;spacingTop=-1;spacingLeft=3;spacingRight=3;rotatable=0;labelPosition=right;points=[];portConstraint=eastwest;" vertex="1" parent="BsBTpEDuHhooEc4nyUK5-38">
          <mxGeometry y="30" width="178" height="60" as="geometry" />
        </mxCell>
        <mxCell id="BsBTpEDuHhooEc4nyUK5-40" value="AppointmentInterval" style="swimlane;fontStyle=2;align=center;verticalAlign=top;childLayout=stackLayout;horizontal=1;startSize=30;horizontalStack=0;resizeParent=1;resizeLast=0;collapsible=1;marginBottom=0;rounded=0;shadow=0;strokeWidth=1;fillColor=#f5f5f5;fontColor=#333333;strokeColor=#666666;fontSize=18;" vertex="1" parent="BsBTpEDuHhooEc4nyUK5-37">
          <mxGeometry x="310" y="96" width="178" height="108" as="geometry">
            <mxRectangle x="230" y="140" width="160" height="26" as="alternateBounds" />
          </mxGeometry>
        </mxCell>
        <mxCell id="BsBTpEDuHhooEc4nyUK5-41" value="" style="line;html=1;strokeWidth=1;align=left;verticalAlign=middle;spacingTop=-1;spacingLeft=3;spacingRight=3;rotatable=0;labelPosition=right;points=[];portConstraint=eastwest;" vertex="1" parent="BsBTpEDuHhooEc4nyUK5-40">
          <mxGeometry y="30" width="178" height="60" as="geometry" />
        </mxCell>
        <mxCell id="BsBTpEDuHhooEc4nyUK5-48" value="Test" style="swimlane;fontStyle=2;align=center;verticalAlign=top;childLayout=stackLayout;horizontal=1;startSize=30;horizontalStack=0;resizeParent=1;resizeLast=0;collapsible=1;marginBottom=0;rounded=0;shadow=0;strokeWidth=1;fillColor=#f5f5f5;fontColor=#333333;strokeColor=#666666;fontSize=18;" vertex="1" parent="BsBTpEDuHhooEc4nyUK5-37">
          <mxGeometry x="51.5" y="257" width="178" height="108" as="geometry">
            <mxRectangle x="230" y="140" width="160" height="26" as="alternateBounds" />
          </mxGeometry>
        </mxCell>
        <mxCell id="BsBTpEDuHhooEc4nyUK5-49" value="" style="line;html=1;strokeWidth=1;align=left;verticalAlign=middle;spacingTop=-1;spacingLeft=3;spacingRight=3;rotatable=0;labelPosition=right;points=[];portConstraint=eastwest;" vertex="1" parent="BsBTpEDuHhooEc4nyUK5-48">
          <mxGeometry y="30" width="178" height="60" as="geometry" />
        </mxCell>
        <mxCell id="BsBTpEDuHhooEc4nyUK5-50" value="TestType" style="swimlane;fontStyle=2;align=center;verticalAlign=top;childLayout=stackLayout;horizontal=1;startSize=30;horizontalStack=0;resizeParent=1;resizeLast=0;collapsible=1;marginBottom=0;rounded=0;shadow=0;strokeWidth=1;fillColor=#f5f5f5;fontColor=#333333;strokeColor=#666666;fontSize=18;" vertex="1" parent="BsBTpEDuHhooEc4nyUK5-37">
          <mxGeometry x="310" y="257" width="178" height="108" as="geometry">
            <mxRectangle x="230" y="140" width="160" height="26" as="alternateBounds" />
          </mxGeometry>
        </mxCell>
        <mxCell id="BsBTpEDuHhooEc4nyUK5-51" value="" style="line;html=1;strokeWidth=1;align=left;verticalAlign=middle;spacingTop=-1;spacingLeft=3;spacingRight=3;rotatable=0;labelPosition=right;points=[];portConstraint=eastwest;" vertex="1" parent="BsBTpEDuHhooEc4nyUK5-50">
          <mxGeometry y="30" width="178" height="60" as="geometry" />
        </mxCell>
        <mxCell id="BsBTpEDuHhooEc4nyUK5-52" value="&lt;font style=&quot;font-size: 20px; font-weight: normal;&quot;&gt;Person&lt;/font&gt;" style="shape=folder;fontStyle=1;tabWidth=200;tabHeight=55;tabPosition=left;html=1;boundedLbl=1;labelInHeader=1;container=1;collapsible=0;recursiveResize=0;whiteSpace=wrap;" vertex="1" parent="BsBTpEDuHhooEc4nyUK5-25">
          <mxGeometry x="406" y="419" width="281" height="238" as="geometry" />
        </mxCell>
        <mxCell id="BsBTpEDuHhooEc4nyUK5-53" value="Person" style="swimlane;fontStyle=2;align=center;verticalAlign=top;childLayout=stackLayout;horizontal=1;startSize=30;horizontalStack=0;resizeParent=1;resizeLast=0;collapsible=1;marginBottom=0;rounded=0;shadow=0;strokeWidth=1;fillColor=#f5f5f5;fontColor=#333333;strokeColor=#666666;fontSize=18;" vertex="1" parent="BsBTpEDuHhooEc4nyUK5-52">
          <mxGeometry x="51.5" y="96" width="178" height="108" as="geometry">
            <mxRectangle x="230" y="140" width="160" height="26" as="alternateBounds" />
          </mxGeometry>
        </mxCell>
        <mxCell id="BsBTpEDuHhooEc4nyUK5-54" value="" style="line;html=1;strokeWidth=1;align=left;verticalAlign=middle;spacingTop=-1;spacingLeft=3;spacingRight=3;rotatable=0;labelPosition=right;points=[];portConstraint=eastwest;" vertex="1" parent="BsBTpEDuHhooEc4nyUK5-53">
          <mxGeometry y="30" width="178" height="60" as="geometry" />
        </mxCell>
        <mxCell id="BsBTpEDuHhooEc4nyUK5-55" value="&lt;font style=&quot;font-size: 20px; font-weight: normal;&quot;&gt;Lab&lt;/font&gt;" style="shape=folder;fontStyle=1;tabWidth=200;tabHeight=55;tabPosition=left;html=1;boundedLbl=1;labelInHeader=1;container=1;collapsible=0;recursiveResize=0;whiteSpace=wrap;" vertex="1" parent="BsBTpEDuHhooEc4nyUK5-25">
          <mxGeometry x="759" y="160" width="787" height="423" as="geometry" />
        </mxCell>
        <mxCell id="BsBTpEDuHhooEc4nyUK5-56" value="Laboratory" style="swimlane;fontStyle=2;align=center;verticalAlign=top;childLayout=stackLayout;horizontal=1;startSize=30;horizontalStack=0;resizeParent=1;resizeLast=0;collapsible=1;marginBottom=0;rounded=0;shadow=0;strokeWidth=1;fillColor=#f5f5f5;fontColor=#333333;strokeColor=#666666;fontSize=18;" vertex="1" parent="BsBTpEDuHhooEc4nyUK5-55">
          <mxGeometry x="51.5" y="96" width="178" height="108" as="geometry">
            <mxRectangle x="230" y="140" width="160" height="26" as="alternateBounds" />
          </mxGeometry>
        </mxCell>
        <mxCell id="BsBTpEDuHhooEc4nyUK5-57" value="" style="line;html=1;strokeWidth=1;align=left;verticalAlign=middle;spacingTop=-1;spacingLeft=3;spacingRight=3;rotatable=0;labelPosition=right;points=[];portConstraint=eastwest;" vertex="1" parent="BsBTpEDuHhooEc4nyUK5-56">
          <mxGeometry y="30" width="178" height="60" as="geometry" />
        </mxCell>
        <mxCell id="BsBTpEDuHhooEc4nyUK5-58" value="User" style="swimlane;fontStyle=2;align=center;verticalAlign=top;childLayout=stackLayout;horizontal=1;startSize=30;horizontalStack=0;resizeParent=1;resizeLast=0;collapsible=1;marginBottom=0;rounded=0;shadow=0;strokeWidth=1;fillColor=#f5f5f5;fontColor=#333333;strokeColor=#666666;fontSize=18;" vertex="1" parent="BsBTpEDuHhooEc4nyUK5-55">
          <mxGeometry x="310" y="96" width="178" height="108" as="geometry">
            <mxRectangle x="230" y="140" width="160" height="26" as="alternateBounds" />
          </mxGeometry>
        </mxCell>
        <mxCell id="BsBTpEDuHhooEc4nyUK5-59" value="" style="line;html=1;strokeWidth=1;align=left;verticalAlign=middle;spacingTop=-1;spacingLeft=3;spacingRight=3;rotatable=0;labelPosition=right;points=[];portConstraint=eastwest;" vertex="1" parent="BsBTpEDuHhooEc4nyUK5-58">
          <mxGeometry y="30" width="178" height="60" as="geometry" />
        </mxCell>
        <mxCell id="BsBTpEDuHhooEc4nyUK5-60" value="LabMember" style="swimlane;fontStyle=2;align=center;verticalAlign=top;childLayout=stackLayout;horizontal=1;startSize=30;horizontalStack=0;resizeParent=1;resizeLast=0;collapsible=1;marginBottom=0;rounded=0;shadow=0;strokeWidth=1;fillColor=#f5f5f5;fontColor=#333333;strokeColor=#666666;fontSize=18;" vertex="1" parent="BsBTpEDuHhooEc4nyUK5-55">
          <mxGeometry x="51.5" y="257" width="178" height="108" as="geometry">
            <mxRectangle x="230" y="140" width="160" height="26" as="alternateBounds" />
          </mxGeometry>
        </mxCell>
        <mxCell id="BsBTpEDuHhooEc4nyUK5-61" value="" style="line;html=1;strokeWidth=1;align=left;verticalAlign=middle;spacingTop=-1;spacingLeft=3;spacingRight=3;rotatable=0;labelPosition=right;points=[];portConstraint=eastwest;" vertex="1" parent="BsBTpEDuHhooEc4nyUK5-60">
          <mxGeometry y="30" width="178" height="60" as="geometry" />
        </mxCell>
        <mxCell id="BsBTpEDuHhooEc4nyUK5-62" value="Technician" style="swimlane;fontStyle=2;align=center;verticalAlign=top;childLayout=stackLayout;horizontal=1;startSize=30;horizontalStack=0;resizeParent=1;resizeLast=0;collapsible=1;marginBottom=0;rounded=0;shadow=0;strokeWidth=1;fillColor=#f5f5f5;fontColor=#333333;strokeColor=#666666;fontSize=18;" vertex="1" parent="BsBTpEDuHhooEc4nyUK5-55">
          <mxGeometry x="310" y="257" width="178" height="108" as="geometry">
            <mxRectangle x="230" y="140" width="160" height="26" as="alternateBounds" />
          </mxGeometry>
        </mxCell>
        <mxCell id="BsBTpEDuHhooEc4nyUK5-63" value="" style="line;html=1;strokeWidth=1;align=left;verticalAlign=middle;spacingTop=-1;spacingLeft=3;spacingRight=3;rotatable=0;labelPosition=right;points=[];portConstraint=eastwest;" vertex="1" parent="BsBTpEDuHhooEc4nyUK5-62">
          <mxGeometry y="30" width="178" height="60" as="geometry" />
        </mxCell>
        <mxCell id="BsBTpEDuHhooEc4nyUK5-64" value="LabManager" style="swimlane;fontStyle=2;align=center;verticalAlign=top;childLayout=stackLayout;horizontal=1;startSize=30;horizontalStack=0;resizeParent=1;resizeLast=0;collapsible=1;marginBottom=0;rounded=0;shadow=0;strokeWidth=1;fillColor=#f5f5f5;fontColor=#333333;strokeColor=#666666;fontSize=18;" vertex="1" parent="BsBTpEDuHhooEc4nyUK5-55">
          <mxGeometry x="563" y="96" width="178" height="108" as="geometry">
            <mxRectangle x="230" y="140" width="160" height="26" as="alternateBounds" />
          </mxGeometry>
        </mxCell>
        <mxCell id="BsBTpEDuHhooEc4nyUK5-65" value="" style="line;html=1;strokeWidth=1;align=left;verticalAlign=middle;spacingTop=-1;spacingLeft=3;spacingRight=3;rotatable=0;labelPosition=right;points=[];portConstraint=eastwest;" vertex="1" parent="BsBTpEDuHhooEc4nyUK5-64">
          <mxGeometry y="30" width="178" height="60" as="geometry" />
        </mxCell>
        <mxCell id="BsBTpEDuHhooEc4nyUK5-66" value="Pathologist" style="swimlane;fontStyle=2;align=center;verticalAlign=top;childLayout=stackLayout;horizontal=1;startSize=30;horizontalStack=0;resizeParent=1;resizeLast=0;collapsible=1;marginBottom=0;rounded=0;shadow=0;strokeWidth=1;fillColor=#f5f5f5;fontColor=#333333;strokeColor=#666666;fontSize=18;" vertex="1" parent="BsBTpEDuHhooEc4nyUK5-55">
          <mxGeometry x="563" y="257" width="178" height="108" as="geometry">
            <mxRectangle x="230" y="140" width="160" height="26" as="alternateBounds" />
          </mxGeometry>
        </mxCell>
        <mxCell id="BsBTpEDuHhooEc4nyUK5-67" value="" style="line;html=1;strokeWidth=1;align=left;verticalAlign=middle;spacingTop=-1;spacingLeft=3;spacingRight=3;rotatable=0;labelPosition=right;points=[];portConstraint=eastwest;" vertex="1" parent="BsBTpEDuHhooEc4nyUK5-66">
          <mxGeometry y="30" width="178" height="60" as="geometry" />
        </mxCell>
        <mxCell id="_Cq2Wfc6zpn0Q51L7NEY-1" style="edgeStyle=orthogonalEdgeStyle;rounded=0;orthogonalLoop=1;jettySize=auto;html=1;exitX=0.5;exitY=0;exitDx=0;exitDy=0;entryX=0;entryY=0.5;entryDx=0;entryDy=0;dashed=1;strokeWidth=2;" edge="1" parent="1" source="v_ib7AoCrN3aufJ-A9O3-47" target="BsBTpEDuHhooEc4nyUK5-35">
          <mxGeometry relative="1" as="geometry">
            <Array as="points">
              <mxPoint x="258" y="1526" />
              <mxPoint x="204" y="1526" />
              <mxPoint x="204" y="1020" />
            </Array>
          </mxGeometry>
        </mxCell>
        <mxCell id="_Cq2Wfc6zpn0Q51L7NEY-3" style="edgeStyle=orthogonalEdgeStyle;rounded=0;orthogonalLoop=1;jettySize=auto;html=1;exitX=0.5;exitY=0;exitDx=0;exitDy=0;entryX=0.5;entryY=1;entryDx=0;entryDy=0;dashed=1;strokeWidth=2;fillColor=#008a00;strokeColor=#005700;" edge="1" parent="1" source="v_ib7AoCrN3aufJ-A9O3-45" target="BsBTpEDuHhooEc4nyUK5-32">
          <mxGeometry relative="1" as="geometry">
            <Array as="points">
              <mxPoint x="485" y="1130" />
              <mxPoint x="682" y="1130" />
            </Array>
          </mxGeometry>
        </mxCell>
        <mxCell id="_Cq2Wfc6zpn0Q51L7NEY-9" style="edgeStyle=orthogonalEdgeStyle;rounded=0;orthogonalLoop=1;jettySize=auto;html=1;exitX=0.75;exitY=0;exitDx=0;exitDy=0;entryX=0;entryY=1;entryDx=0;entryDy=0;dashed=1;strokeWidth=2;fillColor=#008a00;strokeColor=#005700;" edge="1" parent="1" source="v_ib7AoCrN3aufJ-A9O3-45" target="BsBTpEDuHhooEc4nyUK5-53">
          <mxGeometry relative="1" as="geometry">
            <mxPoint x="495" y="1780" as="sourcePoint" />
            <mxPoint x="495" y="1371" as="targetPoint" />
            <Array as="points">
              <mxPoint x="530" y="1571" />
              <mxPoint x="593" y="1571" />
            </Array>
          </mxGeometry>
        </mxCell>
        <mxCell id="_Cq2Wfc6zpn0Q51L7NEY-11" style="edgeStyle=orthogonalEdgeStyle;rounded=0;orthogonalLoop=1;jettySize=auto;html=1;exitX=0.5;exitY=0;exitDx=0;exitDy=0;dashed=1;strokeWidth=2;entryX=0.25;entryY=1;entryDx=0;entryDy=0;fillColor=#1ba1e2;strokeColor=#006EAF;" edge="1" parent="1" source="v_ib7AoCrN3aufJ-A9O3-39" target="BsBTpEDuHhooEc4nyUK5-53">
          <mxGeometry relative="1" as="geometry">
            <mxPoint x="861" y="1767" as="sourcePoint" />
            <mxPoint x="623" y="1385" as="targetPoint" />
            <Array as="points">
              <mxPoint x="865" y="1610" />
              <mxPoint x="637" y="1610" />
            </Array>
          </mxGeometry>
        </mxCell>
        <mxCell id="_Cq2Wfc6zpn0Q51L7NEY-14" style="edgeStyle=orthogonalEdgeStyle;rounded=0;orthogonalLoop=1;jettySize=auto;html=1;exitX=0.5;exitY=0;exitDx=0;exitDy=0;dashed=1;strokeWidth=2;entryX=0.5;entryY=1;entryDx=0;entryDy=0;fillColor=#1ba1e2;strokeColor=#006EAF;" edge="1" parent="1" source="v_ib7AoCrN3aufJ-A9O3-39" target="BsBTpEDuHhooEc4nyUK5-62">
          <mxGeometry relative="1" as="geometry">
            <mxPoint x="866" y="1776" as="sourcePoint" />
            <mxPoint x="1034" y="1507" as="targetPoint" />
            <Array as="points">
              <mxPoint x="865" y="1610" />
              <mxPoint x="1293" y="1610" />
            </Array>
          </mxGeometry>
        </mxCell>
        <mxCell id="_Cq2Wfc6zpn0Q51L7NEY-15" style="edgeStyle=orthogonalEdgeStyle;rounded=0;orthogonalLoop=1;jettySize=auto;html=1;exitX=0.5;exitY=0;exitDx=0;exitDy=0;dashed=1;strokeWidth=2;entryX=0;entryY=0.5;entryDx=0;entryDy=0;fillColor=#1ba1e2;strokeColor=#006EAF;" edge="1" parent="1" source="v_ib7AoCrN3aufJ-A9O3-39" target="BsBTpEDuHhooEc4nyUK5-58">
          <mxGeometry relative="1" as="geometry">
            <mxPoint x="865" y="1777" as="sourcePoint" />
            <mxPoint x="1293" y="1258" as="targetPoint" />
            <Array as="points">
              <mxPoint x="865" y="1610" />
              <mxPoint x="1159" y="1610" />
              <mxPoint x="1159" y="1047" />
            </Array>
          </mxGeometry>
        </mxCell>
        <mxCell id="_Cq2Wfc6zpn0Q51L7NEY-17" style="edgeStyle=orthogonalEdgeStyle;rounded=0;orthogonalLoop=1;jettySize=auto;html=1;exitX=0.5;exitY=0;exitDx=0;exitDy=0;dashed=1;strokeWidth=2;entryX=0.25;entryY=1;entryDx=0;entryDy=0;fillColor=#1ba1e2;strokeColor=#006EAF;" edge="1" parent="1" source="v_ib7AoCrN3aufJ-A9O3-39" target="BsBTpEDuHhooEc4nyUK5-60">
          <mxGeometry relative="1" as="geometry">
            <mxPoint x="865" y="1775" as="sourcePoint" />
            <mxPoint x="1204" y="1041" as="targetPoint" />
            <Array as="points">
              <mxPoint x="865" y="1610" />
              <mxPoint x="990" y="1610" />
            </Array>
          </mxGeometry>
        </mxCell>
        <mxCell id="_Cq2Wfc6zpn0Q51L7NEY-19" style="edgeStyle=orthogonalEdgeStyle;rounded=0;orthogonalLoop=1;jettySize=auto;html=1;exitX=0.5;exitY=0;exitDx=0;exitDy=0;dashed=1;strokeWidth=2;entryX=0.75;entryY=1;entryDx=0;entryDy=0;fillColor=#d80073;strokeColor=#A50040;" edge="1" parent="1" source="v_ib7AoCrN3aufJ-A9O3-43" target="BsBTpEDuHhooEc4nyUK5-53">
          <mxGeometry relative="1" as="geometry">
            <mxPoint x="1080" y="1775" as="sourcePoint" />
            <mxPoint x="1250" y="1256" as="targetPoint" />
            <Array as="points">
              <mxPoint x="1078" y="1503" />
              <mxPoint x="726" y="1503" />
            </Array>
          </mxGeometry>
        </mxCell>
        <mxCell id="_Cq2Wfc6zpn0Q51L7NEY-20" style="edgeStyle=orthogonalEdgeStyle;rounded=0;orthogonalLoop=1;jettySize=auto;html=1;dashed=1;strokeWidth=2;entryX=0.5;entryY=1;entryDx=0;entryDy=0;fillColor=#d80073;strokeColor=#A50040;exitX=0.5;exitY=0;exitDx=0;exitDy=0;" edge="1" parent="1" source="v_ib7AoCrN3aufJ-A9O3-43" target="BsBTpEDuHhooEc4nyUK5-66">
          <mxGeometry relative="1" as="geometry">
            <mxPoint x="1078" y="1791" as="sourcePoint" />
            <mxPoint x="692" y="1370" as="targetPoint" />
            <Array as="points">
              <mxPoint x="1078" y="1502" />
              <mxPoint x="1546" y="1502" />
            </Array>
          </mxGeometry>
        </mxCell>
        <mxCell id="_Cq2Wfc6zpn0Q51L7NEY-22" style="edgeStyle=orthogonalEdgeStyle;rounded=0;orthogonalLoop=1;jettySize=auto;html=1;dashed=1;strokeWidth=2;entryX=0.5;entryY=1;entryDx=0;entryDy=0;fillColor=#d80073;strokeColor=#A50040;exitX=0.5;exitY=0;exitDx=0;exitDy=0;" edge="1" parent="1" source="v_ib7AoCrN3aufJ-A9O3-43" target="BsBTpEDuHhooEc4nyUK5-58">
          <mxGeometry relative="1" as="geometry">
            <mxPoint x="1088" y="1791" as="sourcePoint" />
            <mxPoint x="1556" y="1272" as="targetPoint" />
            <Array as="points">
              <mxPoint x="1078" y="1502" />
              <mxPoint x="1186" y="1502" />
              <mxPoint x="1186" y="1133" />
              <mxPoint x="1293" y="1133" />
            </Array>
          </mxGeometry>
        </mxCell>
        <mxCell id="_Cq2Wfc6zpn0Q51L7NEY-23" style="edgeStyle=orthogonalEdgeStyle;rounded=0;orthogonalLoop=1;jettySize=auto;html=1;exitX=0.5;exitY=0;exitDx=0;exitDy=0;dashed=1;strokeWidth=2;entryX=0.75;entryY=1;entryDx=0;entryDy=0;fillColor=#d80073;strokeColor=#A50040;" edge="1" parent="1" source="v_ib7AoCrN3aufJ-A9O3-43" target="BsBTpEDuHhooEc4nyUK5-60">
          <mxGeometry relative="1" as="geometry">
            <mxPoint x="1079" y="1757" as="sourcePoint" />
            <mxPoint x="682" y="1336" as="targetPoint" />
            <Array as="points">
              <mxPoint x="1078" y="1515" />
              <mxPoint x="1079" y="1262" />
            </Array>
          </mxGeometry>
        </mxCell>
        <mxCell id="_Cq2Wfc6zpn0Q51L7NEY-24" style="edgeStyle=orthogonalEdgeStyle;rounded=0;orthogonalLoop=1;jettySize=auto;html=1;exitX=0.5;exitY=0;exitDx=0;exitDy=0;dashed=1;strokeWidth=2;entryX=1;entryY=1;entryDx=0;entryDy=0;" edge="1" parent="1" source="v_ib7AoCrN3aufJ-A9O3-41" target="BsBTpEDuHhooEc4nyUK5-53">
          <mxGeometry relative="1" as="geometry">
            <mxPoint x="1299" y="1770" as="sourcePoint" />
            <mxPoint x="1424" y="1251" as="targetPoint" />
            <Array as="points">
              <mxPoint x="1300" y="1738" />
              <mxPoint x="1339" y="1738" />
              <mxPoint x="1339" y="1556" />
              <mxPoint x="771" y="1556" />
            </Array>
          </mxGeometry>
        </mxCell>
        <mxCell id="_Cq2Wfc6zpn0Q51L7NEY-25" style="edgeStyle=orthogonalEdgeStyle;rounded=0;orthogonalLoop=1;jettySize=auto;html=1;exitX=0.5;exitY=0;exitDx=0;exitDy=0;dashed=1;strokeWidth=2;entryX=1;entryY=0.5;entryDx=0;entryDy=0;" edge="1" parent="1" source="v_ib7AoCrN3aufJ-A9O3-41" target="BsBTpEDuHhooEc4nyUK5-64">
          <mxGeometry relative="1" as="geometry">
            <mxPoint x="1310" y="1791" as="sourcePoint" />
            <mxPoint x="781" y="1370" as="targetPoint" />
            <Array as="points">
              <mxPoint x="1300" y="1738" />
              <mxPoint x="1339" y="1738" />
              <mxPoint x="1339" y="1556" />
              <mxPoint x="1658" y="1556" />
              <mxPoint x="1658" y="1047" />
            </Array>
          </mxGeometry>
        </mxCell>
        <mxCell id="_Cq2Wfc6zpn0Q51L7NEY-26" style="edgeStyle=orthogonalEdgeStyle;rounded=0;orthogonalLoop=1;jettySize=auto;html=1;exitX=0.5;exitY=0;exitDx=0;exitDy=0;dashed=1;strokeWidth=2;entryX=1;entryY=0.5;entryDx=0;entryDy=0;" edge="1" parent="1" source="v_ib7AoCrN3aufJ-A9O3-41" target="BsBTpEDuHhooEc4nyUK5-58">
          <mxGeometry relative="1" as="geometry">
            <mxPoint x="1305" y="1784" as="sourcePoint" />
            <mxPoint x="776" y="1363" as="targetPoint" />
            <Array as="points">
              <mxPoint x="1300" y="1738" />
              <mxPoint x="1338" y="1738" />
              <mxPoint x="1338" y="1556" />
              <mxPoint x="1417" y="1556" />
              <mxPoint x="1417" y="1047" />
            </Array>
          </mxGeometry>
        </mxCell>
        <mxCell id="_Cq2Wfc6zpn0Q51L7NEY-28" style="edgeStyle=orthogonalEdgeStyle;rounded=0;orthogonalLoop=1;jettySize=auto;html=1;exitX=0.5;exitY=0;exitDx=0;exitDy=0;dashed=1;strokeWidth=2;entryX=0;entryY=0.5;entryDx=0;entryDy=0;fillColor=#fad9d5;strokeColor=#ae4132;" edge="1" parent="1" source="v_ib7AoCrN3aufJ-A9O3-37" target="BsBTpEDuHhooEc4nyUK5-56">
          <mxGeometry relative="1" as="geometry">
            <mxPoint x="875" y="1791" as="sourcePoint" />
            <mxPoint x="1000" y="1272" as="targetPoint" />
            <Array as="points">
              <mxPoint x="675" y="1696" />
              <mxPoint x="836" y="1696" />
              <mxPoint x="836" y="1048" />
              <mxPoint x="946" y="1048" />
            </Array>
          </mxGeometry>
        </mxCell>
        <mxCell id="_Cq2Wfc6zpn0Q51L7NEY-29" style="edgeStyle=orthogonalEdgeStyle;rounded=0;orthogonalLoop=1;jettySize=auto;html=1;exitX=0;exitY=0.5;exitDx=0;exitDy=0;dashed=1;strokeWidth=2;entryX=0;entryY=0.5;entryDx=0;entryDy=0;fillColor=#fad9d5;strokeColor=#ae4132;" edge="1" parent="1" source="v_ib7AoCrN3aufJ-A9O3-33" target="BsBTpEDuHhooEc4nyUK5-38">
          <mxGeometry relative="1" as="geometry">
            <mxPoint x="685" y="1954" as="sourcePoint" />
            <mxPoint x="956" y="1057" as="targetPoint" />
            <Array as="points">
              <mxPoint x="1708" y="1915" />
              <mxPoint x="1708" y="1045" />
            </Array>
          </mxGeometry>
        </mxCell>
        <mxCell id="_Cq2Wfc6zpn0Q51L7NEY-30" style="edgeStyle=orthogonalEdgeStyle;rounded=0;orthogonalLoop=1;jettySize=auto;html=1;exitX=0;exitY=0.5;exitDx=0;exitDy=0;dashed=1;strokeWidth=2;entryX=0;entryY=0.5;entryDx=0;entryDy=0;fillColor=#1ba1e2;strokeColor=#006EAF;" edge="1" parent="1" source="v_ib7AoCrN3aufJ-A9O3-29" target="BsBTpEDuHhooEc4nyUK5-48">
          <mxGeometry relative="1" as="geometry">
            <mxPoint x="875" y="1791" as="sourcePoint" />
            <mxPoint x="1303" y="1272" as="targetPoint" />
            <Array as="points">
              <mxPoint x="1761" y="1754" />
              <mxPoint x="1761" y="1206" />
            </Array>
          </mxGeometry>
        </mxCell>
        <mxCell id="_Cq2Wfc6zpn0Q51L7NEY-31" style="edgeStyle=orthogonalEdgeStyle;rounded=0;orthogonalLoop=1;jettySize=auto;html=1;dashed=1;strokeWidth=2;entryX=1;entryY=0.5;entryDx=0;entryDy=0;fillColor=#d80073;strokeColor=#A50040;exitX=1;exitY=0.5;exitDx=0;exitDy=0;" edge="1" parent="1" source="v_ib7AoCrN3aufJ-A9O3-31" target="BsBTpEDuHhooEc4nyUK5-50">
          <mxGeometry relative="1" as="geometry">
            <mxPoint x="1088" y="1791" as="sourcePoint" />
            <mxPoint x="1556" y="1272" as="targetPoint" />
            <Array as="points">
              <mxPoint x="2277" y="1754" />
              <mxPoint x="2277" y="1206" />
            </Array>
          </mxGeometry>
        </mxCell>
        <mxCell id="_Cq2Wfc6zpn0Q51L7NEY-32" style="edgeStyle=orthogonalEdgeStyle;rounded=0;orthogonalLoop=1;jettySize=auto;html=1;exitX=1;exitY=0.5;exitDx=0;exitDy=0;entryX=1;entryY=0.5;entryDx=0;entryDy=0;dashed=1;strokeWidth=2;fillColor=#008a00;strokeColor=#005700;" edge="1" parent="1" source="v_ib7AoCrN3aufJ-A9O3-35" target="BsBTpEDuHhooEc4nyUK5-40">
          <mxGeometry relative="1" as="geometry">
            <mxPoint x="540" y="1780" as="sourcePoint" />
            <mxPoint x="603" y="1370" as="targetPoint" />
            <Array as="points">
              <mxPoint x="2336" y="1915" />
              <mxPoint x="2336" y="1045" />
            </Array>
          </mxGeometry>
        </mxCell>
        <mxCell id="_Cq2Wfc6zpn0Q51L7NEY-33" style="edgeStyle=orthogonalEdgeStyle;rounded=0;orthogonalLoop=1;jettySize=auto;html=1;entryX=0.5;entryY=0;entryDx=0;entryDy=0;dashed=1;strokeWidth=2;exitX=0.5;exitY=1;exitDx=0;exitDy=0;" edge="1" parent="1" source="MHrxUZ-h8h2R6Ow2J2WO-14" target="BsBTpEDuHhooEc4nyUK5-56">
          <mxGeometry relative="1" as="geometry">
            <mxPoint x="343" y="948" as="sourcePoint" />
            <mxPoint x="323" y="198" as="targetPoint" />
            <Array as="points">
              <mxPoint x="388" y="778" />
              <mxPoint x="1035" y="778" />
            </Array>
          </mxGeometry>
        </mxCell>
        <mxCell id="_Cq2Wfc6zpn0Q51L7NEY-34" style="edgeStyle=orthogonalEdgeStyle;rounded=0;orthogonalLoop=1;jettySize=auto;html=1;entryX=0.5;entryY=0;entryDx=0;entryDy=0;dashed=1;strokeWidth=2;exitX=0.5;exitY=1;exitDx=0;exitDy=0;fillColor=#e6d0de;strokeColor=#996185;gradientColor=#d5739d;" edge="1" parent="1" source="MHrxUZ-h8h2R6Ow2J2WO-8" target="BsBTpEDuHhooEc4nyUK5-32">
          <mxGeometry relative="1" as="geometry">
            <mxPoint x="398" y="491" as="sourcePoint" />
            <mxPoint x="1045" y="1003" as="targetPoint" />
            <Array as="points">
              <mxPoint x="738" y="831" />
              <mxPoint x="682" y="831" />
            </Array>
          </mxGeometry>
        </mxCell>
        <mxCell id="_Cq2Wfc6zpn0Q51L7NEY-35" style="edgeStyle=orthogonalEdgeStyle;rounded=0;orthogonalLoop=1;jettySize=auto;html=1;dashed=1;strokeWidth=2;exitX=0.5;exitY=1;exitDx=0;exitDy=0;fillColor=#e6d0de;strokeColor=#996185;gradientColor=#d5739d;entryX=0.5;entryY=0;entryDx=0;entryDy=0;" edge="1" parent="1" source="MHrxUZ-h8h2R6Ow2J2WO-8" target="BsBTpEDuHhooEc4nyUK5-64">
          <mxGeometry relative="1" as="geometry">
            <mxPoint x="748" y="491" as="sourcePoint" />
            <mxPoint x="692" y="980" as="targetPoint" />
            <Array as="points">
              <mxPoint x="738" y="669" />
              <mxPoint x="1546" y="669" />
            </Array>
          </mxGeometry>
        </mxCell>
        <mxCell id="_Cq2Wfc6zpn0Q51L7NEY-36" style="edgeStyle=orthogonalEdgeStyle;rounded=0;orthogonalLoop=1;jettySize=auto;html=1;dashed=1;strokeWidth=2;exitX=0.5;exitY=1;exitDx=0;exitDy=0;fillColor=#e6d0de;strokeColor=#996185;gradientColor=#d5739d;entryX=0.5;entryY=0;entryDx=0;entryDy=0;" edge="1" parent="1" source="MHrxUZ-h8h2R6Ow2J2WO-8" target="BsBTpEDuHhooEc4nyUK5-66">
          <mxGeometry relative="1" as="geometry">
            <mxPoint x="748" y="491" as="sourcePoint" />
            <mxPoint x="1556" y="1003" as="targetPoint" />
            <Array as="points">
              <mxPoint x="738" y="669" />
              <mxPoint x="1438" y="669" />
              <mxPoint x="1438" y="1118" />
              <mxPoint x="1546" y="1118" />
            </Array>
          </mxGeometry>
        </mxCell>
        <mxCell id="_Cq2Wfc6zpn0Q51L7NEY-37" style="edgeStyle=orthogonalEdgeStyle;rounded=0;orthogonalLoop=1;jettySize=auto;html=1;dashed=1;strokeWidth=2;exitX=0.5;exitY=1;exitDx=0;exitDy=0;fillColor=#e6d0de;strokeColor=#996185;gradientColor=#d5739d;entryX=0.75;entryY=0;entryDx=0;entryDy=0;" edge="1" parent="1" source="MHrxUZ-h8h2R6Ow2J2WO-8" target="BsBTpEDuHhooEc4nyUK5-62">
          <mxGeometry relative="1" as="geometry">
            <mxPoint x="758" y="501" as="sourcePoint" />
            <mxPoint x="1566" y="1013" as="targetPoint" />
            <Array as="points">
              <mxPoint x="738" y="669" />
              <mxPoint x="1438" y="669" />
              <mxPoint x="1438" y="1117" />
              <mxPoint x="1338" y="1117" />
            </Array>
          </mxGeometry>
        </mxCell>
        <mxCell id="_Cq2Wfc6zpn0Q51L7NEY-38" style="edgeStyle=orthogonalEdgeStyle;rounded=0;orthogonalLoop=1;jettySize=auto;html=1;dashed=1;strokeWidth=2;exitX=0.5;exitY=1;exitDx=0;exitDy=0;fillColor=#1ba1e2;strokeColor=#006EAF;entryX=0.75;entryY=0;entryDx=0;entryDy=0;" edge="1" parent="1" source="MHrxUZ-h8h2R6Ow2J2WO-16" target="BsBTpEDuHhooEc4nyUK5-56">
          <mxGeometry relative="1" as="geometry">
            <mxPoint x="748" y="491" as="sourcePoint" />
            <mxPoint x="1348" y="1164" as="targetPoint" />
            <Array as="points">
              <mxPoint x="964" y="698" />
              <mxPoint x="1230" y="698" />
              <mxPoint x="1230" y="883" />
              <mxPoint x="1079" y="883" />
            </Array>
          </mxGeometry>
        </mxCell>
        <mxCell id="_Cq2Wfc6zpn0Q51L7NEY-39" style="edgeStyle=orthogonalEdgeStyle;rounded=0;orthogonalLoop=1;jettySize=auto;html=1;dashed=1;strokeWidth=2;exitX=0.5;exitY=1;exitDx=0;exitDy=0;fillColor=#1ba1e2;strokeColor=#006EAF;entryX=0.25;entryY=0;entryDx=0;entryDy=0;" edge="1" parent="1" source="MHrxUZ-h8h2R6Ow2J2WO-16" target="BsBTpEDuHhooEc4nyUK5-64">
          <mxGeometry relative="1" as="geometry">
            <mxPoint x="974" y="491" as="sourcePoint" />
            <mxPoint x="1089" y="1003" as="targetPoint" />
            <Array as="points">
              <mxPoint x="964" y="698" />
              <mxPoint x="1230" y="698" />
              <mxPoint x="1230" y="883" />
              <mxPoint x="1502" y="883" />
              <mxPoint x="1502" y="993" />
            </Array>
          </mxGeometry>
        </mxCell>
        <mxCell id="_Cq2Wfc6zpn0Q51L7NEY-40" style="edgeStyle=orthogonalEdgeStyle;rounded=0;orthogonalLoop=1;jettySize=auto;html=1;exitX=0.5;exitY=1;exitDx=0;exitDy=0;entryX=0.75;entryY=0;entryDx=0;entryDy=0;dashed=1;strokeWidth=2;fillColor=#008a00;strokeColor=#005700;" edge="1" parent="1" source="MHrxUZ-h8h2R6Ow2J2WO-11" target="BsBTpEDuHhooEc4nyUK5-32">
          <mxGeometry relative="1" as="geometry">
            <mxPoint x="495" y="1780" as="sourcePoint" />
            <mxPoint x="692" y="1088" as="targetPoint" />
            <Array as="points">
              <mxPoint x="1311" y="749" />
              <mxPoint x="771" y="749" />
              <mxPoint x="771" y="942" />
              <mxPoint x="726" y="942" />
            </Array>
          </mxGeometry>
        </mxCell>
        <mxCell id="_Cq2Wfc6zpn0Q51L7NEY-46" style="edgeStyle=orthogonalEdgeStyle;rounded=0;orthogonalLoop=1;jettySize=auto;html=1;exitX=0.5;exitY=1;exitDx=0;exitDy=0;dashed=1;strokeWidth=2;entryX=0.75;entryY=0;entryDx=0;entryDy=0;fillColor=#fad9d5;strokeColor=#ae4132;" edge="1" parent="1" source="MHrxUZ-h8h2R6Ow2J2WO-19" target="BsBTpEDuHhooEc4nyUK5-64">
          <mxGeometry relative="1" as="geometry">
            <mxPoint x="1829" y="1925" as="sourcePoint" />
            <mxPoint x="1809" y="1055" as="targetPoint" />
            <Array as="points">
              <mxPoint x="1659" y="884" />
              <mxPoint x="1591" y="884" />
            </Array>
          </mxGeometry>
        </mxCell>
        <mxCell id="_Cq2Wfc6zpn0Q51L7NEY-50" style="edgeStyle=orthogonalEdgeStyle;rounded=0;orthogonalLoop=1;jettySize=auto;html=1;dashed=1;strokeWidth=2;entryX=0.75;entryY=0;entryDx=0;entryDy=0;fillColor=#d80073;strokeColor=#A50040;exitX=0.5;exitY=1;exitDx=0;exitDy=0;" edge="1" parent="1" source="MHrxUZ-h8h2R6Ow2J2WO-23" target="BsBTpEDuHhooEc4nyUK5-66">
          <mxGeometry relative="1" as="geometry">
            <mxPoint x="1088" y="1791" as="sourcePoint" />
            <mxPoint x="1089" y="1272" as="targetPoint" />
            <Array as="points">
              <mxPoint x="2121" y="668" />
              <mxPoint x="1692" y="668" />
              <mxPoint x="1692" y="1117" />
              <mxPoint x="1590" y="1117" />
            </Array>
          </mxGeometry>
        </mxCell>
        <mxCell id="_Cq2Wfc6zpn0Q51L7NEY-55" style="edgeStyle=orthogonalEdgeStyle;rounded=0;orthogonalLoop=1;jettySize=auto;html=1;dashed=1;strokeWidth=2;entryX=0.631;entryY=-0.015;entryDx=0;entryDy=0;fillColor=#1ba1e2;strokeColor=#006EAF;exitX=0.5;exitY=1;exitDx=0;exitDy=0;entryPerimeter=0;" edge="1" parent="1" source="MHrxUZ-h8h2R6Ow2J2WO-21" target="BsBTpEDuHhooEc4nyUK5-62">
          <mxGeometry relative="1" as="geometry">
            <mxPoint x="875" y="1791" as="sourcePoint" />
            <mxPoint x="1000" y="1272" as="targetPoint" />
            <Array as="points">
              <mxPoint x="1886" y="842" />
              <mxPoint x="1714" y="842" />
              <mxPoint x="1714" y="1134" />
              <mxPoint x="1316" y="1134" />
            </Array>
          </mxGeometry>
        </mxCell>
        <mxCell id="_Cq2Wfc6zpn0Q51L7NEY-60" style="edgeStyle=orthogonalEdgeStyle;rounded=0;orthogonalLoop=1;jettySize=auto;html=1;dashed=1;strokeWidth=2;fillColor=#fad9d5;strokeColor=#ae4132;exitX=0.5;exitY=1;exitDx=0;exitDy=0;entryX=1;entryY=0;entryDx=0;entryDy=0;" edge="1" parent="1" source="MHrxUZ-h8h2R6Ow2J2WO-19" target="BsBTpEDuHhooEc4nyUK5-56">
          <mxGeometry relative="1" as="geometry">
            <mxPoint x="1656" y="481" as="sourcePoint" />
            <mxPoint x="1592" y="927" as="targetPoint" />
            <Array as="points">
              <mxPoint x="1660" y="884" />
              <mxPoint x="1591" y="884" />
              <mxPoint x="1591" y="933" />
              <mxPoint x="1124" y="933" />
            </Array>
          </mxGeometry>
        </mxCell>
      </root>
    </mxGraphModel>
  </diagram>
</mxfile>
